<svg xmlns="http://www.w3.org/2000/svg" xmlns:xlink="http://www.w3.org/1999/xlink" viewBox="0 0 492.62 324.24"><defs><style>.cls-1{fill:url(#linear-gradient);}.cls-2{fill:url(#linear-gradient-2);}.cls-3{fill:url(#linear-gradient-3);}</style><linearGradient id="linear-gradient" y1="162.12" x2="492.62" y2="162.12" gradientUnits="userSpaceOnUse"><stop offset="0" stop-color="#9d3adf"/><stop offset="0.21" stop-color="#8542d8"/><stop offset="0.64" stop-color="#4857c6"/><stop offset="1" stop-color="#106ab6"/></linearGradient><linearGradient id="linear-gradient-2" x1="246.37" y1="120.86" x2="297.54" y2="120.86" xlink:href="#linear-gradient"/><linearGradient id="linear-gradient-3" x1="170.85" y1="239.29" x2="246.3" y2="239.29" xlink:href="#linear-gradient"/></defs><g id="Capa_2" data-name="Capa 2"><g id="Capa_1-2" data-name="Capa 1"><path class="cls-1" d="M4.74,58.32l131.15,245a39.66,39.66,0,0,0,69.88,0l20.83-38.88,19.69-36.8,0,0,40.55,75.71a39.63,39.63,0,0,0,66,5.91,40.49,40.49,0,0,0,3.89-5.91l16.14-30.2,115-214.82A39.62,39.62,0,0,0,453,0h-124a39.62,39.62,0,0,0-35,20.9L266,73.08l-19.68,36.76,0,.07-47.66-89A39.57,39.57,0,0,0,163.73,0H39.7a39.62,39.62,0,0,0-35,58.32Zm273.1,110.33,19.69-36.73,40.89-76.38h88l-85,158.69-19.62,36.66-6.07-11.32-37.91-70.78ZM154.22,55.54l1,1.84L214.8,168.79l0,.07-19.69,36.76-24.23,45.27L66.25,55.54Z"/><polygon class="cls-2" points="246.37 109.82 266.05 73.06 297.54 131.9 277.86 168.67 246.37 109.82"/><polygon class="cls-3" points="170.85 250.89 214.78 168.84 246.3 227.68 202.37 309.73 170.85 250.89"/></g></g></svg>